<?xml version="1.0" encoding="iso-8859-1"?>
<!-- Uploaded to: SVG Repo, www.svgrepo.com, Generator: SVG Repo Mixer Tools -->
<svg version="1.1" id="Layer_1" xmlns="http://www.w3.org/2000/svg" xmlns:xlink="http://www.w3.org/1999/xlink" 
	 viewBox="0 0 392.663 392.663" xml:space="preserve">
<path style="fill:#56ACE0;" d="M213.333,357.474c1.745-3.879,5.624-6.335,9.891-6.335h136.792c6.012,0,10.925-4.848,10.925-10.925
	V163.341c0-5.947-4.849-10.925-10.925-10.925H343.79v172.606c0.065,6.788-6.594,12.994-14.222,10.343
	c-45.188-14.739-87.855-28.768-130.004-1.228c-2.78,1.875-5.883,2.069-9.374,1.228l0,0c-54.044-17.907-90.246-26.505-130.004-1.228
	c-7.111,4.461-16.679-0.711-16.873-9.115V152.48H32.582c-6.012,0-10.925,4.848-10.925,10.925v176.937
	c0,5.947,4.848,10.925,10.925,10.925h131.362c4.267,0,8.145,2.457,9.891,6.335c3.556,7.758,11.313,12.671,19.717,12.671
	C201.956,370.274,209.778,365.232,213.333,357.474z"/>
<path style="fill:#FFC10D;" d="M182.756,310.218V119.511c-41.632-14.998-83.976-22.303-117.527-1.875v189.156
	C102.659,289.919,142.416,296.642,182.756,310.218z"/>
<path style="fill:#FFFFFF;" d="M322.004,310.218V119.511c-3.62-1.164-7.37-2.327-11.119-3.491l-21.527,38.659
	c-0.84,1.551-2.069,2.909-3.62,3.879l-40.21,25.665c-7.564,4.655-16.614-0.646-16.679-9.244l0.711-47.709
	c0-1.745,0.453-3.556,1.422-5.107l9.051-16.291c-12.671,1.552-24.372,5.301-35.556,11.83v189.156
	C244.428,288.626,283.733,298.064,322.004,310.218z"/>
<g>
	<polygon style="fill:#FFC10D;" points="250.828,155.066 271.709,141.684 278.044,130.371 257.487,119.058 251.216,130.307 	"/>
	<path style="fill:#FFC10D;" d="M328.339,39.995c3.168-5.624,1.099-12.8-4.59-15.968c-5.56-3.103-12.929-0.905-15.968,4.59
		l-3.232,5.883l20.493,11.442L328.339,39.995z"/>
</g>
<rect x="279.52" y="55.689" transform="matrix(-0.8737 -0.4864 0.4864 -0.8737 505.6543 296.0403)" style="fill:#56ACE0;" width="23.466" height="53.396"/>
<g>
	<path style="fill:#194F82;" d="M91.863,154.678c18.166-4.073,37.818-2.844,63.741,4.008c5.495,1.422,11.442-1.745,13.317-7.758
		c1.552-5.818-1.939-11.766-7.758-13.317c-29.543-7.822-52.364-9.051-74.085-4.202c-5.883,1.293-9.503,7.111-8.21,12.994
		C80.226,152.351,85.98,155.971,91.863,154.678z"/>
	<path style="fill:#194F82;" d="M91.863,214.67c18.166-4.073,37.818-2.844,63.741,4.008c5.495,1.422,11.442-1.745,13.317-7.758
		c1.552-5.818-1.939-11.766-7.758-13.317c-29.543-7.822-52.364-9.051-74.085-4.202c-5.883,1.293-9.503,7.111-8.21,12.994
		C80.226,212.408,85.98,216.028,91.863,214.67z"/>
	<path style="fill:#194F82;" d="M359.952,130.759h-16.226v-19.135c0-4.719-3.038-8.857-7.499-10.343
		c-4.59-1.487-9.503-3.103-14.545-4.719l25.665-46.028c8.986-16.162,3.168-36.525-12.994-45.511
		c-17.778-9.632-36.849-2.069-45.511,12.994L252.38,83.438c-21.915,0-41.826,5.301-60.186,16.356
		c-56.436-19.846-101.624-25.665-143.903,2.78c-3.103,2.004-4.978,5.43-4.978,9.115v19.135H32.582
		C14.61,130.759,0,145.369,0,163.406v176.937c0,18.036,14.61,32.582,32.582,32.582h125.091
		c8.016,11.766,21.398,19.006,35.943,19.006c14.545,0,27.927-7.24,35.943-19.006h130.521c18.036,0,32.582-14.61,32.582-32.582
		V163.406C392.533,145.369,377.923,130.759,359.952,130.759z M307.846,28.553c3.038-5.495,10.408-7.628,15.968-4.59
		c5.624,3.168,7.758,10.279,4.59,15.968l-3.232,5.883l-20.493-11.442L307.846,28.553z M294.012,53.442l20.493,11.378l-25.988,46.675
		l-20.493-11.442L294.012,53.442z M251.216,130.307l6.271-11.313l20.493,11.442l-6.271,11.313l-20.881,13.382L251.216,130.307z
		 M204.477,117.636c11.184-6.465,22.885-10.343,35.556-11.83l-9.115,16.291c-0.84,1.552-1.293,3.297-1.422,5.107l-0.711,47.709
		c0.065,8.727,9.115,13.964,16.679,9.244l40.21-25.665c1.552-0.905,2.78-2.327,3.62-3.879l21.527-38.659
		c3.814,1.164,7.499,2.327,11.119,3.491v190.707c-38.335-12.154-77.576-21.527-117.527-3.426V117.636H204.477z M65.164,117.636
		c33.552-20.558,75.895-13.188,117.527,1.875v190.707c-40.339-13.576-80.032-20.428-117.527-3.426V117.636z M370.812,340.343
		c0,5.948-4.849,10.925-10.925,10.925H223.16c-4.267,0-8.145,2.457-9.891,6.335c-3.556,7.758-11.313,12.671-19.717,12.671
		s-16.226-5.042-19.717-12.671c-1.745-3.879-5.624-6.335-9.891-6.335H32.582c-6.012,0-10.925-4.848-10.925-10.925V163.406
		c0-5.947,4.848-10.925,10.925-10.925h10.925v172.606c0.065,8.404,9.632,13.576,16.873,9.115
		c39.693-25.277,75.96-16.743,130.004,1.228l0,0c3.426,0.905,6.594,0.646,9.374-1.228c42.02-27.539,84.752-13.511,130.004,1.228
		c7.758,2.65,14.287-3.556,14.222-10.343V152.48h16.226c6.012,0,10.925,4.848,10.925,10.925v176.937L370.812,340.343
		L370.812,340.343z"/>
	<path style="fill:#194F82;" d="M168.921,270.783c1.552-5.818-1.939-11.766-7.758-13.317c-29.543-7.822-52.364-9.051-74.085-4.202
		c-5.883,1.293-9.503,7.111-8.21,12.994c1.293,5.883,7.176,9.503,12.994,8.21c18.166-4.073,37.818-2.844,63.741,4.008
		C161.099,280.028,167.046,276.731,168.921,270.783z"/>
	<path style="fill:#194F82;" d="M231.499,218.743c25.988-6.853,45.64-8.016,63.741-4.008c5.818,1.293,11.636-2.327,12.994-8.21
		c1.293-5.883-2.392-11.636-8.21-12.994c-21.721-4.848-44.606-3.62-74.085,4.202c-5.818,1.552-9.244,7.499-7.758,13.317
		C220.057,216.933,226.004,220.1,231.499,218.743z"/>
	<path style="fill:#194F82;" d="M295.305,274.597c5.818,1.293,11.636-2.327,12.994-8.21c1.293-5.883-2.392-11.636-8.21-12.994
		c-21.721-4.848-44.606-3.62-74.085,4.202c-5.818,1.552-9.244,7.499-7.758,13.317c1.875,5.947,7.822,9.115,13.317,7.758
		C257.487,271.753,277.139,270.525,295.305,274.597z"/>
</g>
</svg>